<?xml version="1.0" standalone="no"?>
<!DOCTYPE svg PUBLIC "-//W3C//DTD SVG 20010904//EN"
 "http://www.w3.org/TR/2001/REC-SVG-20010904/DTD/svg10.dtd">
<svg version="1.0" xmlns="http://www.w3.org/2000/svg"
 width="250.000000pt" height="250.000000pt" viewBox="0 0 250.000000 250.000000"
 preserveAspectRatio="xMidYMid meet">
<metadata>
Created by potrace 1.14, written by Peter Selinger 2001-2017
</metadata>
<g transform="translate(0.000000,250.000000) scale(0.100000,-0.100000)"
fill="#000000" stroke="none">
<path d="M260 1250 l0 -990 990 0 990 0 0 990 0 990 -990 0 -990 0 0 -990z
m1910 0 l0 -920 -920 0 -920 0 0 920 0 920 920 0 920 0 0 -920z"/>
<path d="M1671 1861 c-69 -24 -99 -47 -138 -104 -36 -54 -53 -121 -53 -212 l0
-65 -70 0 -70 0 0 -40 c0 -46 13 -56 88 -66 l52 -7 0 -373 0 -374 75 0 75 0 0
375 0 375 125 0 125 0 0 55 0 55 -125 0 -125 0 0 73 c0 56 5 83 23 117 33 64
65 84 147 88 80 5 93 15 88 68 -2 31 -8 40 -28 45 -47 13 -135 8 -189 -10z"/>
<path d="M821 1494 c-163 -59 -232 -211 -158 -347 30 -54 91 -90 235 -138 180
-60 219 -104 178 -203 -23 -55 -77 -81 -167 -81 -68 0 -83 4 -152 39 -76 39
-77 39 -98 20 -11 -10 -27 -31 -35 -46 -14 -27 -13 -28 25 -53 123 -82 320
-97 441 -35 51 27 107 89 125 139 19 54 20 153 1 189 -37 70 -91 102 -271 162
-121 40 -165 76 -165 135 0 29 8 45 33 70 62 62 168 70 266 21 69 -36 94 -34
119 8 l20 34 -21 21 c-12 11 -49 32 -82 48 -76 34 -222 43 -294 17z"/>
</g>
</svg>
